<mxfile host="app.diagrams.net" modified="2024-04-18T22:52:51.774Z" agent="Mozilla/5.0 (X11; CrOS x86_64 14541.0.0) AppleWebKit/537.36 (KHTML, like Gecko) Chrome/122.0.0.0 Safari/537.36" version="24.0.8" etag="0qQG4HxhyONuwPEQs5s_" type="github">
  <diagram name="PÃ¡gina-1" id="cx0wpnVoJVSfttiWeJYG">
    <mxGraphModel>
      <root>
        <mxCell id="0" />
        <mxCell id="1" parent="0" />
      </root>
    </mxGraphModel>
  </diagram>
</mxfile>
